# xmcd
#
# Track frame offsets:
#	150
#	3665
#	24850
#	64300
#	103005
#	104988
#	114400
#	130453
#	143915
#	168963
#	174133
#	182863
#	191635
#	194668
#	208578
#	217650
#	235410
#	250515
#	261555
#
# Disc length: 3514 seconds
#
# Revision: 0
# Processed by: cddbd v1.5.1PL0 Copyright (c) Steve Scherf et al.
# Submitted via: dBpowerAMP V4.0
#
DISCID=1a0db813
DTITLE=Cned - Cned
DYEAR=2005
DGENRE=Acapella
TTITLE0=A
TTITLE1=B
TTITLE2=C
TTITLE3=D
TTITLE4=E
TTITLE5=F
TTITLE6=G
TTITLE7=G
TTITLE8=H
TTITLE9=I
TTITLE10=J
TTITLE11=K
TTITLE12=L
TTITLE13=M
TTITLE14=N
TTITLE15=O
TTITLE16=P
TTITLE17=Q
TTITLE18=R
EXTD=
EXTT0=
EXTT1=
EXTT2=
EXTT3=
EXTT4=
EXTT5=
EXTT6=
EXTT7=
EXTT8=
EXTT9=
EXTT10=
EXTT11=
EXTT12=
EXTT13=
EXTT14=
EXTT15=
EXTT16=
EXTT17=
EXTT18=
PLAYORDER=
